<svg class="plot" version="1.1" xmlns="http://www.w3.org/2000/svg" height="540" width="1056" style="font-family: &quot;Helvetica Neue&quot;, Helvetica, Arial, sans-serif;"><g class="plot" transform="translate(96,0) scale(1.0714285714285714)"><g class="all-data"><g class="data" id="a" style="cursor: pointer;"><path class="line" d="M0,252L28.2,224.58613012299224L56.4,198.48567895103866L84.60000000000001,174.94913833127362L112.8,155.10416126712033L141,139.90153523201366L169.20000000000002,130.06962924098275L197.4,126.07949715446L225.6,128.12230914074286L253.79999999999998,136.10019257237207L282,149.63092117582784L310.2,168.06622777392857L338.40000000000003,190.5228632439497L366.6,215.92491363389405L394.8,243.055347992693L423,270.61432721981237L451.2,297.28148031431397L479.4,321.7791643223936L507.59999999999997,342.93367715269846L535.8,359.73149050833763L564,371.36780877438014L592.1999999999999,377.2851273687603L620.4,377.19994319758837L648.6,371.11633749727105L676.8000000000001,359.3257802994682L705,342.39316588711335L733.2,321.1297482930896L761.4,296.5542735217616L789.6,269.8441706772675L817.8,242.27914046758013" id="a" stroke="#1f77b4" stroke-width="2.5" fill="none" style="shape-rendering: geometricPrecision;"></path><circle class="dot" id="a" cx="0" cy="252" r="3.5" fill="rgb(31, 119, 180)"></circle><circle class="dot" id="a" cx="28.2" cy="224.58613012299224" r="3.5" fill="rgb(31, 119, 180)"></circle><circle class="dot" id="a" cx="56.4" cy="198.48567895103866" r="3.5" fill="rgb(31, 119, 180)"></circle><circle class="dot" id="a" cx="84.60000000000001" cy="174.94913833127362" r="3.5" fill="rgb(31, 119, 180)"></circle><circle class="dot" id="a" cx="112.8" cy="155.10416126712033" r="3.5" fill="rgb(31, 119, 180)"></circle><circle class="dot" id="a" cx="141" cy="139.90153523201366" r="3.5" fill="rgb(31, 119, 180)"></circle><circle class="dot" id="a" cx="169.20000000000002" cy="130.06962924098275" r="3.5" fill="rgb(31, 119, 180)"></circle><circle class="dot" id="a" cx="197.4" cy="126.07949715446" r="3.5" fill="rgb(31, 119, 180)"></circle><circle class="dot" id="a" cx="225.6" cy="128.12230914074286" r="3.5" fill="rgb(31, 119, 180)"></circle><circle class="dot" id="a" cx="253.79999999999998" cy="136.10019257237207" r="3.5" fill="rgb(31, 119, 180)"></circle><circle class="dot" id="a" cx="282" cy="149.63092117582784" r="3.5" fill="rgb(31, 119, 180)"></circle><circle class="dot" id="a" cx="310.2" cy="168.06622777392857" r="3.5" fill="rgb(31, 119, 180)"></circle><circle class="dot" id="a" cx="338.40000000000003" cy="190.5228632439497" r="3.5" fill="rgb(31, 119, 180)"></circle><circle class="dot" id="a" cx="366.6" cy="215.92491363389405" r="3.5" fill="rgb(31, 119, 180)"></circle><circle class="dot" id="a" cx="394.8" cy="243.055347992693" r="3.5" fill="rgb(31, 119, 180)"></circle><circle class="dot" id="a" cx="423" cy="270.61432721981237" r="3.5" fill="rgb(31, 119, 180)"></circle><circle class="dot" id="a" cx="451.2" cy="297.28148031431397" r="3.5" fill="rgb(31, 119, 180)"></circle><circle class="dot" id="a" cx="479.4" cy="321.7791643223936" r="3.5" fill="rgb(31, 119, 180)"></circle><circle class="dot" id="a" cx="507.59999999999997" cy="342.93367715269846" r="3.5" fill="rgb(31, 119, 180)"></circle><circle class="dot" id="a" cx="535.8" cy="359.73149050833763" r="3.5" fill="rgb(31, 119, 180)"></circle><circle class="dot" id="a" cx="564" cy="371.36780877438014" r="3.5" fill="rgb(31, 119, 180)"></circle><circle class="dot" id="a" cx="592.1999999999999" cy="377.2851273687603" r="3.5" fill="rgb(31, 119, 180)"></circle><circle class="dot" id="a" cx="620.4" cy="377.19994319758837" r="3.5" fill="rgb(31, 119, 180)"></circle><circle class="dot" id="a" cx="648.6" cy="371.11633749727105" r="3.5" fill="rgb(31, 119, 180)"></circle><circle class="dot" id="a" cx="676.8000000000001" cy="359.3257802994682" r="3.5" fill="rgb(31, 119, 180)"></circle><circle class="dot" id="a" cx="705" cy="342.39316588711335" r="3.5" fill="rgb(31, 119, 180)"></circle><circle class="dot" id="a" cx="733.2" cy="321.1297482930896" r="3.5" fill="rgb(31, 119, 180)"></circle><circle class="dot" id="a" cx="761.4" cy="296.5542735217616" r="3.5" fill="rgb(31, 119, 180)"></circle><circle class="dot" id="a" cx="789.6" cy="269.8441706772675" r="3.5" fill="rgb(31, 119, 180)"></circle><circle class="dot" id="a" cx="817.8" cy="242.27914046758013" r="3.5" fill="rgb(31, 119, 180)"></circle></g></g><g class="legend"></g><g class="d3-tooltip"></g><text class="plot-title" x="423" y="-40" text-anchor="middle" alignment-baseline="text-after-edge" style="font-size: 20px;"></text></g></svg>