<svg class="plot" version="1.1" xmlns="http://www.w3.org/2000/svg" height="559.2" width="1056" style="font-family: &quot;Helvetica Neue&quot;, Helvetica, Arial, sans-serif;"><g class="plot" transform="translate(96,19.200000000000003) scale(1.0714285714285714)"><g class="all-data"><g class="data" id="a" style="cursor: pointer;"><path class="line" d="M0,267.0769230769231L8.16,197.28994388137815L16.32,136.18818117021914L24.48,86.01047005978944L32.64,48.303863099166904L40.800000000000004,23.90322437352546L48.96,12.946271006346592L57.120000000000005,14.92062121673115L65.28,28.738150093741865L73.44,52.8310164964214L81.60000000000001,85.26312696312851L89.76,123.85054748315525L97.92,166.28444724670078L106.08,210.25053132068965L114.24000000000001,253.5395508302595L122.39999999999999,294.14431971496913L130.56,330.33966043546656L138.72,360.74278813014143L146.88,384.3527647351422L155.04,400.5687554288097L163.20000000000002,409.18784870355387L171.35999999999999,410.38411498646497L179.52,404.67134243058064L187.68,392.8524774789971L195.84,375.959197479506L204,355.1852485401992L212.16,331.81719906850935L220.32000000000002,307.16610171169924L228.48000000000002,282.50324467159965L236.64,259.00273427169645L244.79999999999998,237.69311488913067L252.96,219.41963284636725L261.12,204.81812100752998L269.28000000000003,194.30085293642196L277.44,188.05411926461971L285.59999999999997,186.04674031449252L293.76,188.048269215859L301.92,193.6552745607811L310.08,202.3238311567603L318.24,213.40619600497908L326.40000000000003,226.18960306665164L334.56,239.9351684658721L342.71999999999997,253.91504693333619L350.88,267.44620642483545L359.04,279.91947427657783L367.2,290.8228367249244L375.36,299.75832526409545L383.52,306.4521796319238L391.68,310.7583208919091L399.84,312.6554837426952L408,312.2386319716168L416.16,309.70550494851284L424.32,305.33930948109946L432.48,299.48867673207485L440.64000000000004,292.5460479113962L448.8,284.92563772916776L456.96000000000004,277.04205634213224L465.11999999999995,269.2905561117875L473.28,262.0297179064459L481.44,255.56721299184304L489.59999999999997,250.14908134894497L497.76,245.95276608930115L505.92,243.08394653549894L514.08,241.5770285605587L522.24,241.39898767759215L530.4,242.45612429380387L538.5600000000001,244.60318588628277L546.72,247.6542401837544L554.88,251.39464749767097L563.04,255.5934781770467L571.1999999999999,260.01575027096135L579.36,264.4339190811379L587.52,268.63812956862165L595.68,272.4448390279907L603.84,275.7035251517407L612,278.3013075871138L620.16,280.1654235580966L628.32,281.263604775554L636.48,281.60249906267006L644.64,281.2243621077719L652.8000000000001,280.20230971545163L660.96,278.634467078641L669.12,276.63737818947595L677.28,274.3390457838573L685.4399999999999,271.87196131266944L693.6,269.36645726790846L701.76,266.9446733070736L709.92,264.7153760138033L718.08,262.76981308598994L726.24,261.1787196354111L734.4,259.99053042946076L742.5600000000001,259.23079040068535L750.72,258.9026993387445L758.88,258.9886776539287L767.04,259.45280022578106L775.1999999999999,260.2439158180689L783.36,261.29925096194177L791.52,262.54828962431975L799.68,263.91672290386873L807.84,265.3302754851377" id="a" stroke="#1f77b4" stroke-width="2.5" fill="none" style="shape-rendering: geometricPrecision;"></path><circle class="dot" id="a" cx="0" cy="267.0769230769231" r="3.5" fill="rgb(31, 119, 180)"></circle><circle class="dot" id="a" cx="8.16" cy="197.28994388137815" r="3.5" fill="rgb(31, 119, 180)"></circle><circle class="dot" id="a" cx="16.32" cy="136.18818117021914" r="3.5" fill="rgb(31, 119, 180)"></circle><circle class="dot" id="a" cx="24.48" cy="86.01047005978944" r="3.5" fill="rgb(31, 119, 180)"></circle><circle class="dot" id="a" cx="32.64" cy="48.303863099166904" r="3.5" fill="rgb(31, 119, 180)"></circle><circle class="dot" id="a" cx="40.800000000000004" cy="23.90322437352546" r="3.5" fill="rgb(31, 119, 180)"></circle><circle class="dot" id="a" cx="48.96" cy="12.946271006346592" r="3.5" fill="rgb(31, 119, 180)"></circle><circle class="dot" id="a" cx="57.120000000000005" cy="14.92062121673115" r="3.5" fill="rgb(31, 119, 180)"></circle><circle class="dot" id="a" cx="65.28" cy="28.738150093741865" r="3.5" fill="rgb(31, 119, 180)"></circle><circle class="dot" id="a" cx="73.44" cy="52.8310164964214" r="3.5" fill="rgb(31, 119, 180)"></circle><circle class="dot" id="a" cx="81.60000000000001" cy="85.26312696312851" r="3.5" fill="rgb(31, 119, 180)"></circle><circle class="dot" id="a" cx="89.76" cy="123.85054748315525" r="3.5" fill="rgb(31, 119, 180)"></circle><circle class="dot" id="a" cx="97.92" cy="166.28444724670078" r="3.5" fill="rgb(31, 119, 180)"></circle><circle class="dot" id="a" cx="106.08" cy="210.25053132068965" r="3.5" fill="rgb(31, 119, 180)"></circle><circle class="dot" id="a" cx="114.24000000000001" cy="253.5395508302595" r="3.5" fill="rgb(31, 119, 180)"></circle><circle class="dot" id="a" cx="122.39999999999999" cy="294.14431971496913" r="3.5" fill="rgb(31, 119, 180)"></circle><circle class="dot" id="a" cx="130.56" cy="330.33966043546656" r="3.5" fill="rgb(31, 119, 180)"></circle><circle class="dot" id="a" cx="138.72" cy="360.74278813014143" r="3.5" fill="rgb(31, 119, 180)"></circle><circle class="dot" id="a" cx="146.88" cy="384.3527647351422" r="3.5" fill="rgb(31, 119, 180)"></circle><circle class="dot" id="a" cx="155.04" cy="400.5687554288097" r="3.5" fill="rgb(31, 119, 180)"></circle><circle class="dot" id="a" cx="163.20000000000002" cy="409.18784870355387" r="3.5" fill="rgb(31, 119, 180)"></circle><circle class="dot" id="a" cx="171.35999999999999" cy="410.38411498646497" r="3.5" fill="rgb(31, 119, 180)"></circle><circle class="dot" id="a" cx="179.52" cy="404.67134243058064" r="3.5" fill="rgb(31, 119, 180)"></circle><circle class="dot" id="a" cx="187.68" cy="392.8524774789971" r="3.5" fill="rgb(31, 119, 180)"></circle><circle class="dot" id="a" cx="195.84" cy="375.959197479506" r="3.5" fill="rgb(31, 119, 180)"></circle><circle class="dot" id="a" cx="204" cy="355.1852485401992" r="3.5" fill="rgb(31, 119, 180)"></circle><circle class="dot" id="a" cx="212.16" cy="331.81719906850935" r="3.5" fill="rgb(31, 119, 180)"></circle><circle class="dot" id="a" cx="220.32000000000002" cy="307.16610171169924" r="3.5" fill="rgb(31, 119, 180)"></circle><circle class="dot" id="a" cx="228.48000000000002" cy="282.50324467159965" r="3.5" fill="rgb(31, 119, 180)"></circle><circle class="dot" id="a" cx="236.64" cy="259.00273427169645" r="3.5" fill="rgb(31, 119, 180)"></circle><circle class="dot" id="a" cx="244.79999999999998" cy="237.69311488913067" r="3.5" fill="rgb(31, 119, 180)"></circle><circle class="dot" id="a" cx="252.96" cy="219.41963284636725" r="3.5" fill="rgb(31, 119, 180)"></circle><circle class="dot" id="a" cx="261.12" cy="204.81812100752998" r="3.5" fill="rgb(31, 119, 180)"></circle><circle class="dot" id="a" cx="269.28000000000003" cy="194.30085293642196" r="3.5" fill="rgb(31, 119, 180)"></circle><circle class="dot" id="a" cx="277.44" cy="188.05411926461971" r="3.5" fill="rgb(31, 119, 180)"></circle><circle class="dot" id="a" cx="285.59999999999997" cy="186.04674031449252" r="3.5" fill="rgb(31, 119, 180)"></circle><circle class="dot" id="a" cx="293.76" cy="188.048269215859" r="3.5" fill="rgb(31, 119, 180)"></circle><circle class="dot" id="a" cx="301.92" cy="193.6552745607811" r="3.5" fill="rgb(31, 119, 180)"></circle><circle class="dot" id="a" cx="310.08" cy="202.3238311567603" r="3.5" fill="rgb(31, 119, 180)"></circle><circle class="dot" id="a" cx="318.24" cy="213.40619600497908" r="3.5" fill="rgb(31, 119, 180)"></circle><circle class="dot" id="a" cx="326.40000000000003" cy="226.18960306665164" r="3.5" fill="rgb(31, 119, 180)"></circle><circle class="dot" id="a" cx="334.56" cy="239.9351684658721" r="3.5" fill="rgb(31, 119, 180)"></circle><circle class="dot" id="a" cx="342.71999999999997" cy="253.91504693333619" r="3.5" fill="rgb(31, 119, 180)"></circle><circle class="dot" id="a" cx="350.88" cy="267.44620642483545" r="3.5" fill="rgb(31, 119, 180)"></circle><circle class="dot" id="a" cx="359.04" cy="279.91947427657783" r="3.5" fill="rgb(31, 119, 180)"></circle><circle class="dot" id="a" cx="367.2" cy="290.8228367249244" r="3.5" fill="rgb(31, 119, 180)"></circle><circle class="dot" id="a" cx="375.36" cy="299.75832526409545" r="3.5" fill="rgb(31, 119, 180)"></circle><circle class="dot" id="a" cx="383.52" cy="306.4521796319238" r="3.5" fill="rgb(31, 119, 180)"></circle><circle class="dot" id="a" cx="391.68" cy="310.7583208919091" r="3.5" fill="rgb(31, 119, 180)"></circle><circle class="dot" id="a" cx="399.84" cy="312.6554837426952" r="3.5" fill="rgb(31, 119, 180)"></circle><circle class="dot" id="a" cx="408" cy="312.2386319716168" r="3.5" fill="rgb(31, 119, 180)"></circle><circle class="dot" id="a" cx="416.16" cy="309.70550494851284" r="3.5" fill="rgb(31, 119, 180)"></circle><circle class="dot" id="a" cx="424.32" cy="305.33930948109946" r="3.5" fill="rgb(31, 119, 180)"></circle><circle class="dot" id="a" cx="432.48" cy="299.48867673207485" r="3.5" fill="rgb(31, 119, 180)"></circle><circle class="dot" id="a" cx="440.64000000000004" cy="292.5460479113962" r="3.5" fill="rgb(31, 119, 180)"></circle><circle class="dot" id="a" cx="448.8" cy="284.92563772916776" r="3.5" fill="rgb(31, 119, 180)"></circle><circle class="dot" id="a" cx="456.96000000000004" cy="277.04205634213224" r="3.5" fill="rgb(31, 119, 180)"></circle><circle class="dot" id="a" cx="465.11999999999995" cy="269.2905561117875" r="3.5" fill="rgb(31, 119, 180)"></circle><circle class="dot" id="a" cx="473.28" cy="262.0297179064459" r="3.5" fill="rgb(31, 119, 180)"></circle><circle class="dot" id="a" cx="481.44" cy="255.56721299184304" r="3.5" fill="rgb(31, 119, 180)"></circle><circle class="dot" id="a" cx="489.59999999999997" cy="250.14908134894497" r="3.5" fill="rgb(31, 119, 180)"></circle><circle class="dot" id="a" cx="497.76" cy="245.95276608930115" r="3.5" fill="rgb(31, 119, 180)"></circle><circle class="dot" id="a" cx="505.92" cy="243.08394653549894" r="3.5" fill="rgb(31, 119, 180)"></circle><circle class="dot" id="a" cx="514.08" cy="241.5770285605587" r="3.5" fill="rgb(31, 119, 180)"></circle><circle class="dot" id="a" cx="522.24" cy="241.39898767759215" r="3.5" fill="rgb(31, 119, 180)"></circle><circle class="dot" id="a" cx="530.4" cy="242.45612429380387" r="3.5" fill="rgb(31, 119, 180)"></circle><circle class="dot" id="a" cx="538.5600000000001" cy="244.60318588628277" r="3.5" fill="rgb(31, 119, 180)"></circle><circle class="dot" id="a" cx="546.72" cy="247.6542401837544" r="3.5" fill="rgb(31, 119, 180)"></circle><circle class="dot" id="a" cx="554.88" cy="251.39464749767097" r="3.5" fill="rgb(31, 119, 180)"></circle><circle class="dot" id="a" cx="563.04" cy="255.5934781770467" r="3.5" fill="rgb(31, 119, 180)"></circle><circle class="dot" id="a" cx="571.1999999999999" cy="260.01575027096135" r="3.5" fill="rgb(31, 119, 180)"></circle><circle class="dot" id="a" cx="579.36" cy="264.4339190811379" r="3.5" fill="rgb(31, 119, 180)"></circle><circle class="dot" id="a" cx="587.52" cy="268.63812956862165" r="3.5" fill="rgb(31, 119, 180)"></circle><circle class="dot" id="a" cx="595.68" cy="272.4448390279907" r="3.5" fill="rgb(31, 119, 180)"></circle><circle class="dot" id="a" cx="603.84" cy="275.7035251517407" r="3.5" fill="rgb(31, 119, 180)"></circle><circle class="dot" id="a" cx="612" cy="278.3013075871138" r="3.5" fill="rgb(31, 119, 180)"></circle><circle class="dot" id="a" cx="620.16" cy="280.1654235580966" r="3.5" fill="rgb(31, 119, 180)"></circle><circle class="dot" id="a" cx="628.32" cy="281.263604775554" r="3.5" fill="rgb(31, 119, 180)"></circle><circle class="dot" id="a" cx="636.48" cy="281.60249906267006" r="3.5" fill="rgb(31, 119, 180)"></circle><circle class="dot" id="a" cx="644.64" cy="281.2243621077719" r="3.5" fill="rgb(31, 119, 180)"></circle><circle class="dot" id="a" cx="652.8000000000001" cy="280.20230971545163" r="3.5" fill="rgb(31, 119, 180)"></circle><circle class="dot" id="a" cx="660.96" cy="278.634467078641" r="3.5" fill="rgb(31, 119, 180)"></circle><circle class="dot" id="a" cx="669.12" cy="276.63737818947595" r="3.5" fill="rgb(31, 119, 180)"></circle><circle class="dot" id="a" cx="677.28" cy="274.3390457838573" r="3.5" fill="rgb(31, 119, 180)"></circle><circle class="dot" id="a" cx="685.4399999999999" cy="271.87196131266944" r="3.5" fill="rgb(31, 119, 180)"></circle><circle class="dot" id="a" cx="693.6" cy="269.36645726790846" r="3.5" fill="rgb(31, 119, 180)"></circle><circle class="dot" id="a" cx="701.76" cy="266.9446733070736" r="3.5" fill="rgb(31, 119, 180)"></circle><circle class="dot" id="a" cx="709.92" cy="264.7153760138033" r="3.5" fill="rgb(31, 119, 180)"></circle><circle class="dot" id="a" cx="718.08" cy="262.76981308598994" r="3.5" fill="rgb(31, 119, 180)"></circle><circle class="dot" id="a" cx="726.24" cy="261.1787196354111" r="3.5" fill="rgb(31, 119, 180)"></circle><circle class="dot" id="a" cx="734.4" cy="259.99053042946076" r="3.5" fill="rgb(31, 119, 180)"></circle><circle class="dot" id="a" cx="742.5600000000001" cy="259.23079040068535" r="3.5" fill="rgb(31, 119, 180)"></circle><circle class="dot" id="a" cx="750.72" cy="258.9026993387445" r="3.5" fill="rgb(31, 119, 180)"></circle><circle class="dot" id="a" cx="758.88" cy="258.9886776539287" r="3.5" fill="rgb(31, 119, 180)"></circle><circle class="dot" id="a" cx="767.04" cy="259.45280022578106" r="3.5" fill="rgb(31, 119, 180)"></circle><circle class="dot" id="a" cx="775.1999999999999" cy="260.2439158180689" r="3.5" fill="rgb(31, 119, 180)"></circle><circle class="dot" id="a" cx="783.36" cy="261.29925096194177" r="3.5" fill="rgb(31, 119, 180)"></circle><circle class="dot" id="a" cx="791.52" cy="262.54828962431975" r="3.5" fill="rgb(31, 119, 180)"></circle><circle class="dot" id="a" cx="799.68" cy="263.91672290386873" r="3.5" fill="rgb(31, 119, 180)"></circle><circle class="dot" id="a" cx="807.84" cy="265.3302754851377" r="3.5" fill="rgb(31, 119, 180)"></circle></g></g><g class="legend"></g><g class="d3-tooltip"></g><text class="plot-title" x="408" y="-40" text-anchor="middle" alignment-baseline="text-after-edge" style="font-size: 20px;"></text></g></svg>