<svg class="plot" version="1.1" xmlns="http://www.w3.org/2000/svg" height="540" width="1056" style="font-family: &quot;Helvetica Neue&quot;, Helvetica, Arial, sans-serif;"><g class="plot" transform="translate(96,0) scale(1.0714285714285714)"><g class="all-data"><g class="data" id="a" style="cursor: pointer;"><path class="line" d="M0,310.1538461538462L8.46,229.11090257192302L16.92,158.15401684283512L25.38,99.88312652104577L33.84,56.09480876032285L42.300000000000004,27.75858314344896L50.76,15.034379233176708L59.220000000000006,17.327173025881336L67.68,33.37333559273253L76.14,61.35214818939261L84.60000000000001,99.01524421524601L93.06,143.82644223850286L101.52,193.10451938326543L109.98,244.16190734015572L118.44000000000001,294.4330267706239L126.89999999999999,341.58695192706097L135.36,383.62025082828376L143.82000000000002,418.9271087962933L152.28,446.3451461440361L160.74,465.17661920765L169.20000000000002,475.1858888170303L177.66,476.5751012746045L186.12,469.9409137903517L194.58,456.21578029819017L203.04,436.59777771813594L211.5,412.4731918531346L219.96,385.3361021440753L228.42000000000002,356.7090213426185L236.88000000000002,328.0682841347608L245.33999999999997,300.77736883164744L253.79999999999998,276.03071406479694L262.26,254.80989620868453L270.72,237.85330181519612L279.18,225.63970018423197L287.64000000000004,218.38542882342932L296.09999999999997,216.05427907489457L304.56,218.3786352184169L313.02,224.8899962641329L321.48,234.95670714978615L329.94,247.82655019933054L338.40000000000003,262.67179710966L346.85999999999996,278.6343891861741L355.32,294.8690867612936L363.78,310.582691332067L372.24,325.0677765792517L380.7,337.72974587410573L389.16,348.1064422421754L397.62,355.8799505402986L406.08,360.8806307131847L414.54,363.0837875721621L423,362.59970164445826L431.46,359.6580057466601L439.92,354.58758520385743L448.38,347.79330201144177L456.84000000000003,339.7308943487182L465.3,330.8813857500013L473.76000000000005,321.7262589779601L482.21999999999997,312.72451677497907L490.67999999999995,304.292575633292L499.14,296.78773121633384L507.59999999999997,290.49570737296835L516.06,285.6225670714465L524.52,282.29103468638584L532.98,280.5410654251649L541.44,280.33430827075216L549.9,281.5619507928045L558.36,284.0553126421348L566.82,287.5984724714567L575.2800000000001,291.94217128761795L583.74,296.81823272173165L592.1999999999999,301.9537745082132L600.66,307.0845511909989L609.12,311.9668601442058L617.58,316.3875550002473L626.04,320.171835660086L634.5,323.1886152624547L642.96,325.3533950997251L651.42,326.6287023199982L659.88,327.0222569760039L668.34,326.58313018967067L676.8000000000001,325.3962306372987L685.26,323.5755101558412L693.7199999999999,321.25631015552045L702.18,318.5872789748021L710.64,315.72227765342257L719.1,312.812660053055L727.56,310.0002657759564L736.02,307.4114044031264L744.48,305.15204100308506L752.94,303.3043195766064L761.4,301.92448695034153L769.86,301.0422082072474L778.32,300.66119923209044L786.7800000000001,300.76104501746556L795.24,301.300026068649L803.6999999999999,302.21874095001544L812.16,303.4442914396743L820.62,304.8947879508229L829.08,306.48393627546045L837.54,308.12548120854706" id="a" stroke="#1f77b4" stroke-width="2.5" fill="none" style="shape-rendering: geometricPrecision;"></path><circle class="dot" id="a" cx="0" cy="310.1538461538462" r="3.5" fill="rgb(31, 119, 180)"></circle><circle class="dot" id="a" cx="8.46" cy="229.11090257192302" r="3.5" fill="rgb(31, 119, 180)"></circle><circle class="dot" id="a" cx="16.92" cy="158.15401684283512" r="3.5" fill="rgb(31, 119, 180)"></circle><circle class="dot" id="a" cx="25.38" cy="99.88312652104577" r="3.5" fill="rgb(31, 119, 180)"></circle><circle class="dot" id="a" cx="33.84" cy="56.09480876032285" r="3.5" fill="rgb(31, 119, 180)"></circle><circle class="dot" id="a" cx="42.300000000000004" cy="27.75858314344896" r="3.5" fill="rgb(31, 119, 180)"></circle><circle class="dot" id="a" cx="50.76" cy="15.034379233176708" r="3.5" fill="rgb(31, 119, 180)"></circle><circle class="dot" id="a" cx="59.220000000000006" cy="17.327173025881336" r="3.5" fill="rgb(31, 119, 180)"></circle><circle class="dot" id="a" cx="67.68" cy="33.37333559273253" r="3.5" fill="rgb(31, 119, 180)"></circle><circle class="dot" id="a" cx="76.14" cy="61.35214818939261" r="3.5" fill="rgb(31, 119, 180)"></circle><circle class="dot" id="a" cx="84.60000000000001" cy="99.01524421524601" r="3.5" fill="rgb(31, 119, 180)"></circle><circle class="dot" id="a" cx="93.06" cy="143.82644223850286" r="3.5" fill="rgb(31, 119, 180)"></circle><circle class="dot" id="a" cx="101.52" cy="193.10451938326543" r="3.5" fill="rgb(31, 119, 180)"></circle><circle class="dot" id="a" cx="109.98" cy="244.16190734015572" r="3.5" fill="rgb(31, 119, 180)"></circle><circle class="dot" id="a" cx="118.44000000000001" cy="294.4330267706239" r="3.5" fill="rgb(31, 119, 180)"></circle><circle class="dot" id="a" cx="126.89999999999999" cy="341.58695192706097" r="3.5" fill="rgb(31, 119, 180)"></circle><circle class="dot" id="a" cx="135.36" cy="383.62025082828376" r="3.5" fill="rgb(31, 119, 180)"></circle><circle class="dot" id="a" cx="143.82000000000002" cy="418.9271087962933" r="3.5" fill="rgb(31, 119, 180)"></circle><circle class="dot" id="a" cx="152.28" cy="446.3451461440361" r="3.5" fill="rgb(31, 119, 180)"></circle><circle class="dot" id="a" cx="160.74" cy="465.17661920765" r="3.5" fill="rgb(31, 119, 180)"></circle><circle class="dot" id="a" cx="169.20000000000002" cy="475.1858888170303" r="3.5" fill="rgb(31, 119, 180)"></circle><circle class="dot" id="a" cx="177.66" cy="476.5751012746045" r="3.5" fill="rgb(31, 119, 180)"></circle><circle class="dot" id="a" cx="186.12" cy="469.9409137903517" r="3.5" fill="rgb(31, 119, 180)"></circle><circle class="dot" id="a" cx="194.58" cy="456.21578029819017" r="3.5" fill="rgb(31, 119, 180)"></circle><circle class="dot" id="a" cx="203.04" cy="436.59777771813594" r="3.5" fill="rgb(31, 119, 180)"></circle><circle class="dot" id="a" cx="211.5" cy="412.4731918531346" r="3.5" fill="rgb(31, 119, 180)"></circle><circle class="dot" id="a" cx="219.96" cy="385.3361021440753" r="3.5" fill="rgb(31, 119, 180)"></circle><circle class="dot" id="a" cx="228.42000000000002" cy="356.7090213426185" r="3.5" fill="rgb(31, 119, 180)"></circle><circle class="dot" id="a" cx="236.88000000000002" cy="328.0682841347608" r="3.5" fill="rgb(31, 119, 180)"></circle><circle class="dot" id="a" cx="245.33999999999997" cy="300.77736883164744" r="3.5" fill="rgb(31, 119, 180)"></circle><circle class="dot" id="a" cx="253.79999999999998" cy="276.03071406479694" r="3.5" fill="rgb(31, 119, 180)"></circle><circle class="dot" id="a" cx="262.26" cy="254.80989620868453" r="3.5" fill="rgb(31, 119, 180)"></circle><circle class="dot" id="a" cx="270.72" cy="237.85330181519612" r="3.5" fill="rgb(31, 119, 180)"></circle><circle class="dot" id="a" cx="279.18" cy="225.63970018423197" r="3.5" fill="rgb(31, 119, 180)"></circle><circle class="dot" id="a" cx="287.64000000000004" cy="218.38542882342932" r="3.5" fill="rgb(31, 119, 180)"></circle><circle class="dot" id="a" cx="296.09999999999997" cy="216.05427907489457" r="3.5" fill="rgb(31, 119, 180)"></circle><circle class="dot" id="a" cx="304.56" cy="218.3786352184169" r="3.5" fill="rgb(31, 119, 180)"></circle><circle class="dot" id="a" cx="313.02" cy="224.8899962641329" r="3.5" fill="rgb(31, 119, 180)"></circle><circle class="dot" id="a" cx="321.48" cy="234.95670714978615" r="3.5" fill="rgb(31, 119, 180)"></circle><circle class="dot" id="a" cx="329.94" cy="247.82655019933054" r="3.5" fill="rgb(31, 119, 180)"></circle><circle class="dot" id="a" cx="338.40000000000003" cy="262.67179710966" r="3.5" fill="rgb(31, 119, 180)"></circle><circle class="dot" id="a" cx="346.85999999999996" cy="278.6343891861741" r="3.5" fill="rgb(31, 119, 180)"></circle><circle class="dot" id="a" cx="355.32" cy="294.8690867612936" r="3.5" fill="rgb(31, 119, 180)"></circle><circle class="dot" id="a" cx="363.78" cy="310.582691332067" r="3.5" fill="rgb(31, 119, 180)"></circle><circle class="dot" id="a" cx="372.24" cy="325.0677765792517" r="3.5" fill="rgb(31, 119, 180)"></circle><circle class="dot" id="a" cx="380.7" cy="337.72974587410573" r="3.5" fill="rgb(31, 119, 180)"></circle><circle class="dot" id="a" cx="389.16" cy="348.1064422421754" r="3.5" fill="rgb(31, 119, 180)"></circle><circle class="dot" id="a" cx="397.62" cy="355.8799505402986" r="3.5" fill="rgb(31, 119, 180)"></circle><circle class="dot" id="a" cx="406.08" cy="360.8806307131847" r="3.5" fill="rgb(31, 119, 180)"></circle><circle class="dot" id="a" cx="414.54" cy="363.0837875721621" r="3.5" fill="rgb(31, 119, 180)"></circle><circle class="dot" id="a" cx="423" cy="362.59970164445826" r="3.5" fill="rgb(31, 119, 180)"></circle><circle class="dot" id="a" cx="431.46" cy="359.6580057466601" r="3.5" fill="rgb(31, 119, 180)"></circle><circle class="dot" id="a" cx="439.92" cy="354.58758520385743" r="3.5" fill="rgb(31, 119, 180)"></circle><circle class="dot" id="a" cx="448.38" cy="347.79330201144177" r="3.5" fill="rgb(31, 119, 180)"></circle><circle class="dot" id="a" cx="456.84000000000003" cy="339.7308943487182" r="3.5" fill="rgb(31, 119, 180)"></circle><circle class="dot" id="a" cx="465.3" cy="330.8813857500013" r="3.5" fill="rgb(31, 119, 180)"></circle><circle class="dot" id="a" cx="473.76000000000005" cy="321.7262589779601" r="3.5" fill="rgb(31, 119, 180)"></circle><circle class="dot" id="a" cx="482.21999999999997" cy="312.72451677497907" r="3.5" fill="rgb(31, 119, 180)"></circle><circle class="dot" id="a" cx="490.67999999999995" cy="304.292575633292" r="3.5" fill="rgb(31, 119, 180)"></circle><circle class="dot" id="a" cx="499.14" cy="296.78773121633384" r="3.5" fill="rgb(31, 119, 180)"></circle><circle class="dot" id="a" cx="507.59999999999997" cy="290.49570737296835" r="3.5" fill="rgb(31, 119, 180)"></circle><circle class="dot" id="a" cx="516.06" cy="285.6225670714465" r="3.5" fill="rgb(31, 119, 180)"></circle><circle class="dot" id="a" cx="524.52" cy="282.29103468638584" r="3.5" fill="rgb(31, 119, 180)"></circle><circle class="dot" id="a" cx="532.98" cy="280.5410654251649" r="3.5" fill="rgb(31, 119, 180)"></circle><circle class="dot" id="a" cx="541.44" cy="280.33430827075216" r="3.5" fill="rgb(31, 119, 180)"></circle><circle class="dot" id="a" cx="549.9" cy="281.5619507928045" r="3.5" fill="rgb(31, 119, 180)"></circle><circle class="dot" id="a" cx="558.36" cy="284.0553126421348" r="3.5" fill="rgb(31, 119, 180)"></circle><circle class="dot" id="a" cx="566.82" cy="287.5984724714567" r="3.5" fill="rgb(31, 119, 180)"></circle><circle class="dot" id="a" cx="575.2800000000001" cy="291.94217128761795" r="3.5" fill="rgb(31, 119, 180)"></circle><circle class="dot" id="a" cx="583.74" cy="296.81823272173165" r="3.5" fill="rgb(31, 119, 180)"></circle><circle class="dot" id="a" cx="592.1999999999999" cy="301.9537745082132" r="3.5" fill="rgb(31, 119, 180)"></circle><circle class="dot" id="a" cx="600.66" cy="307.0845511909989" r="3.5" fill="rgb(31, 119, 180)"></circle><circle class="dot" id="a" cx="609.12" cy="311.9668601442058" r="3.5" fill="rgb(31, 119, 180)"></circle><circle class="dot" id="a" cx="617.58" cy="316.3875550002473" r="3.5" fill="rgb(31, 119, 180)"></circle><circle class="dot" id="a" cx="626.04" cy="320.171835660086" r="3.5" fill="rgb(31, 119, 180)"></circle><circle class="dot" id="a" cx="634.5" cy="323.1886152624547" r="3.5" fill="rgb(31, 119, 180)"></circle><circle class="dot" id="a" cx="642.96" cy="325.3533950997251" r="3.5" fill="rgb(31, 119, 180)"></circle><circle class="dot" id="a" cx="651.42" cy="326.6287023199982" r="3.5" fill="rgb(31, 119, 180)"></circle><circle class="dot" id="a" cx="659.88" cy="327.0222569760039" r="3.5" fill="rgb(31, 119, 180)"></circle><circle class="dot" id="a" cx="668.34" cy="326.58313018967067" r="3.5" fill="rgb(31, 119, 180)"></circle><circle class="dot" id="a" cx="676.8000000000001" cy="325.3962306372987" r="3.5" fill="rgb(31, 119, 180)"></circle><circle class="dot" id="a" cx="685.26" cy="323.5755101558412" r="3.5" fill="rgb(31, 119, 180)"></circle><circle class="dot" id="a" cx="693.7199999999999" cy="321.25631015552045" r="3.5" fill="rgb(31, 119, 180)"></circle><circle class="dot" id="a" cx="702.18" cy="318.5872789748021" r="3.5" fill="rgb(31, 119, 180)"></circle><circle class="dot" id="a" cx="710.64" cy="315.72227765342257" r="3.5" fill="rgb(31, 119, 180)"></circle><circle class="dot" id="a" cx="719.1" cy="312.812660053055" r="3.5" fill="rgb(31, 119, 180)"></circle><circle class="dot" id="a" cx="727.56" cy="310.0002657759564" r="3.5" fill="rgb(31, 119, 180)"></circle><circle class="dot" id="a" cx="736.02" cy="307.4114044031264" r="3.5" fill="rgb(31, 119, 180)"></circle><circle class="dot" id="a" cx="744.48" cy="305.15204100308506" r="3.5" fill="rgb(31, 119, 180)"></circle><circle class="dot" id="a" cx="752.94" cy="303.3043195766064" r="3.5" fill="rgb(31, 119, 180)"></circle><circle class="dot" id="a" cx="761.4" cy="301.92448695034153" r="3.5" fill="rgb(31, 119, 180)"></circle><circle class="dot" id="a" cx="769.86" cy="301.0422082072474" r="3.5" fill="rgb(31, 119, 180)"></circle><circle class="dot" id="a" cx="778.32" cy="300.66119923209044" r="3.5" fill="rgb(31, 119, 180)"></circle><circle class="dot" id="a" cx="786.7800000000001" cy="300.76104501746556" r="3.5" fill="rgb(31, 119, 180)"></circle><circle class="dot" id="a" cx="795.24" cy="301.300026068649" r="3.5" fill="rgb(31, 119, 180)"></circle><circle class="dot" id="a" cx="803.6999999999999" cy="302.21874095001544" r="3.5" fill="rgb(31, 119, 180)"></circle><circle class="dot" id="a" cx="812.16" cy="303.4442914396743" r="3.5" fill="rgb(31, 119, 180)"></circle><circle class="dot" id="a" cx="820.62" cy="304.8947879508229" r="3.5" fill="rgb(31, 119, 180)"></circle><circle class="dot" id="a" cx="829.08" cy="306.48393627546045" r="3.5" fill="rgb(31, 119, 180)"></circle><circle class="dot" id="a" cx="837.54" cy="308.12548120854706" r="3.5" fill="rgb(31, 119, 180)"></circle></g></g><g class="legend"></g><g class="d3-tooltip"></g><text class="plot-title" x="423" y="-40" text-anchor="middle" alignment-baseline="text-after-edge" style="font-size: 20px;"></text></g></svg>