<svg class="plot" version="1.1" xmlns="http://www.w3.org/2000/svg" height="559.2" width="1056" style="font-family: &quot;Helvetica Neue&quot;, Helvetica, Arial, sans-serif;"><g class="plot" transform="translate(96,19.200000000000003) scale(1.0714285714285714)"><g class="all-data"><g class="data" id="AB_06_PRIME" style="cursor: pointer;"><path class="line" d="M0,89.41601472896639L39.20465740220391,89.41601472896639L78.40931480440781,89.41601472896639L117.61397220661173,89.41601472896639L156.81862960881563,89.41601472896639L196.02328701101956,89.41601472896639L235.22794441322347,89.41601472896639L274.4326018154274,89.41601472896639L313.63725921763125,89.41601472896639L352.8419166198352,89.41601472896639L392.0465740220391,89.41601472896639L431.25123142424303,89.41601472896639L470.45588882644694,94.62604714392359L509.66054622865073,118.94177592543235L548.8652036308547,146.53177903728186L588.0698610330586,194.27231829544715L627.2745184352625,242.49440633958045L666.4791758374665,281.65837991994863L705.6838332396704,287.2387259316024L744.8884906418741,333.8406567478408" id="AB_06_PRIME" stroke="#1f77b4" stroke-width="2.5" fill="none" style="shape-rendering: geometricPrecision;"></path><circle class="dot" id="AB_06_PRIME" cx="0" cy="89.41601472896639" r="3.5" fill="rgb(31, 119, 180)"></circle><circle class="dot" id="AB_06_PRIME" cx="39.20465740220391" cy="89.41601472896639" r="3.5" fill="rgb(31, 119, 180)"></circle><circle class="dot" id="AB_06_PRIME" cx="78.40931480440781" cy="89.41601472896639" r="3.5" fill="rgb(31, 119, 180)"></circle><circle class="dot" id="AB_06_PRIME" cx="117.61397220661173" cy="89.41601472896639" r="3.5" fill="rgb(31, 119, 180)"></circle><circle class="dot" id="AB_06_PRIME" cx="156.81862960881563" cy="89.41601472896639" r="3.5" fill="rgb(31, 119, 180)"></circle><circle class="dot" id="AB_06_PRIME" cx="196.02328701101956" cy="89.41601472896639" r="3.5" fill="rgb(31, 119, 180)"></circle><circle class="dot" id="AB_06_PRIME" cx="235.22794441322347" cy="89.41601472896639" r="3.5" fill="rgb(31, 119, 180)"></circle><circle class="dot" id="AB_06_PRIME" cx="274.4326018154274" cy="89.41601472896639" r="3.5" fill="rgb(31, 119, 180)"></circle><circle class="dot" id="AB_06_PRIME" cx="313.63725921763125" cy="89.41601472896639" r="3.5" fill="rgb(31, 119, 180)"></circle><circle class="dot" id="AB_06_PRIME" cx="352.8419166198352" cy="89.41601472896639" r="3.5" fill="rgb(31, 119, 180)"></circle><circle class="dot" id="AB_06_PRIME" cx="392.0465740220391" cy="89.41601472896639" r="3.5" fill="rgb(31, 119, 180)"></circle><circle class="dot" id="AB_06_PRIME" cx="431.25123142424303" cy="89.41601472896639" r="3.5" fill="rgb(31, 119, 180)"></circle><circle class="dot" id="AB_06_PRIME" cx="470.45588882644694" cy="94.62604714392359" r="3.5" fill="rgb(31, 119, 180)"></circle><circle class="dot" id="AB_06_PRIME" cx="509.66054622865073" cy="118.94177592543235" r="3.5" fill="rgb(31, 119, 180)"></circle><circle class="dot" id="AB_06_PRIME" cx="548.8652036308547" cy="146.53177903728186" r="3.5" fill="rgb(31, 119, 180)"></circle><circle class="dot" id="AB_06_PRIME" cx="588.0698610330586" cy="194.27231829544715" r="3.5" fill="rgb(31, 119, 180)"></circle><circle class="dot" id="AB_06_PRIME" cx="627.2745184352625" cy="242.49440633958045" r="3.5" fill="rgb(31, 119, 180)"></circle><circle class="dot" id="AB_06_PRIME" cx="666.4791758374665" cy="281.65837991994863" r="3.5" fill="rgb(31, 119, 180)"></circle><circle class="dot" id="AB_06_PRIME" cx="705.6838332396704" cy="287.2387259316024" r="3.5" fill="rgb(31, 119, 180)"></circle><circle class="dot" id="AB_06_PRIME" cx="744.8884906418741" cy="333.8406567478408" r="3.5" fill="rgb(31, 119, 180)"></circle></g><g class="data" id="FRANKEL_96" style="cursor: pointer;"><path class="line" d="M0,98.73500000000007L39.20465740220391,98.73500000000007L78.40931480440781,98.73500000000007L117.61397220661173,98.73500000000007L156.81862960881563,98.73500000000007L196.02328701101956,98.73500000000007L235.22794441322347,98.73500000000007L274.4326018154274,98.73500000000007L313.63725921763125,98.73500000000007L352.8419166198352,98.73500000000007L392.0465740220391,98.73500000000007L431.25123142424303,98.73500000000007L470.45588882644694,98.73500000000007L509.66054622865073,98.73500000000007L548.8652036308547,103.05946599423493L588.0698610330586,139.57599177057955L627.2745184352625,180.96717675576463L666.4791758374665,223.55486791434964L705.6838332396704,252.79988819043348L744.8884906418741,304.75689884896474" id="FRANKEL_96" stroke="#ff7f0e" stroke-width="2.5" fill="none" style="shape-rendering: geometricPrecision;"></path><circle class="dot" id="FRANKEL_96" cx="0" cy="98.73500000000007" r="3.5" fill="rgb(255, 127, 14)"></circle><circle class="dot" id="FRANKEL_96" cx="39.20465740220391" cy="98.73500000000007" r="3.5" fill="rgb(255, 127, 14)"></circle><circle class="dot" id="FRANKEL_96" cx="78.40931480440781" cy="98.73500000000007" r="3.5" fill="rgb(255, 127, 14)"></circle><circle class="dot" id="FRANKEL_96" cx="117.61397220661173" cy="98.73500000000007" r="3.5" fill="rgb(255, 127, 14)"></circle><circle class="dot" id="FRANKEL_96" cx="156.81862960881563" cy="98.73500000000007" r="3.5" fill="rgb(255, 127, 14)"></circle><circle class="dot" id="FRANKEL_96" cx="196.02328701101956" cy="98.73500000000007" r="3.5" fill="rgb(255, 127, 14)"></circle><circle class="dot" id="FRANKEL_96" cx="235.22794441322347" cy="98.73500000000007" r="3.5" fill="rgb(255, 127, 14)"></circle><circle class="dot" id="FRANKEL_96" cx="274.4326018154274" cy="98.73500000000007" r="3.5" fill="rgb(255, 127, 14)"></circle><circle class="dot" id="FRANKEL_96" cx="313.63725921763125" cy="98.73500000000007" r="3.5" fill="rgb(255, 127, 14)"></circle><circle class="dot" id="FRANKEL_96" cx="352.8419166198352" cy="98.73500000000007" r="3.5" fill="rgb(255, 127, 14)"></circle><circle class="dot" id="FRANKEL_96" cx="392.0465740220391" cy="98.73500000000007" r="3.5" fill="rgb(255, 127, 14)"></circle><circle class="dot" id="FRANKEL_96" cx="431.25123142424303" cy="98.73500000000007" r="3.5" fill="rgb(255, 127, 14)"></circle><circle class="dot" id="FRANKEL_96" cx="470.45588882644694" cy="98.73500000000007" r="3.5" fill="rgb(255, 127, 14)"></circle><circle class="dot" id="FRANKEL_96" cx="509.66054622865073" cy="98.73500000000007" r="3.5" fill="rgb(255, 127, 14)"></circle><circle class="dot" id="FRANKEL_96" cx="548.8652036308547" cy="103.05946599423493" r="3.5" fill="rgb(255, 127, 14)"></circle><circle class="dot" id="FRANKEL_96" cx="588.0698610330586" cy="139.57599177057955" r="3.5" fill="rgb(255, 127, 14)"></circle><circle class="dot" id="FRANKEL_96" cx="627.2745184352625" cy="180.96717675576463" r="3.5" fill="rgb(255, 127, 14)"></circle><circle class="dot" id="FRANKEL_96" cx="666.4791758374665" cy="223.55486791434964" r="3.5" fill="rgb(255, 127, 14)"></circle><circle class="dot" id="FRANKEL_96" cx="705.6838332396704" cy="252.79988819043348" r="3.5" fill="rgb(255, 127, 14)"></circle><circle class="dot" id="FRANKEL_96" cx="744.8884906418741" cy="304.75689884896474" r="3.5" fill="rgb(255, 127, 14)"></circle></g><g class="data" id="SOMERVILLE_01" style="cursor: pointer;"><path class="line" d="M0,130.3020451927959L39.20465740220391,130.30226748210248L78.40931480440781,130.3027014130774L117.61397220661173,130.303552538316L156.81862960881563,130.30523715244516L196.02328701101956,130.3086282048912L235.22794441322347,130.3156641699353L274.4326018154274,130.33102638141122L313.63725921763125,130.36725851859052L352.8419166198352,130.46166811024386L392.0465740220391,130.73450441651647L431.25123142424303,131.58552948976973L470.45588882644694,134.2501040841189L509.66054622865073,141.48660398053977L548.8652036308547,155.79714051993L588.0698610330586,176.1866273723278L627.2745184352625,200.92259675987248L666.4791758374665,226.32124525550492L705.6838332396704,258.50924018321905L744.8884906418741,307.29674401633656" id="SOMERVILLE_01" stroke="#2ca02c" stroke-width="2.5" fill="none" style="shape-rendering: geometricPrecision;"></path><circle class="dot" id="SOMERVILLE_01" cx="0" cy="130.3020451927959" r="3.5" fill="rgb(44, 160, 44)"></circle><circle class="dot" id="SOMERVILLE_01" cx="39.20465740220391" cy="130.30226748210248" r="3.5" fill="rgb(44, 160, 44)"></circle><circle class="dot" id="SOMERVILLE_01" cx="78.40931480440781" cy="130.3027014130774" r="3.5" fill="rgb(44, 160, 44)"></circle><circle class="dot" id="SOMERVILLE_01" cx="117.61397220661173" cy="130.303552538316" r="3.5" fill="rgb(44, 160, 44)"></circle><circle class="dot" id="SOMERVILLE_01" cx="156.81862960881563" cy="130.30523715244516" r="3.5" fill="rgb(44, 160, 44)"></circle><circle class="dot" id="SOMERVILLE_01" cx="196.02328701101956" cy="130.3086282048912" r="3.5" fill="rgb(44, 160, 44)"></circle><circle class="dot" id="SOMERVILLE_01" cx="235.22794441322347" cy="130.3156641699353" r="3.5" fill="rgb(44, 160, 44)"></circle><circle class="dot" id="SOMERVILLE_01" cx="274.4326018154274" cy="130.33102638141122" r="3.5" fill="rgb(44, 160, 44)"></circle><circle class="dot" id="SOMERVILLE_01" cx="313.63725921763125" cy="130.36725851859052" r="3.5" fill="rgb(44, 160, 44)"></circle><circle class="dot" id="SOMERVILLE_01" cx="352.8419166198352" cy="130.46166811024386" r="3.5" fill="rgb(44, 160, 44)"></circle><circle class="dot" id="SOMERVILLE_01" cx="392.0465740220391" cy="130.73450441651647" r="3.5" fill="rgb(44, 160, 44)"></circle><circle class="dot" id="SOMERVILLE_01" cx="431.25123142424303" cy="131.58552948976973" r="3.5" fill="rgb(44, 160, 44)"></circle><circle class="dot" id="SOMERVILLE_01" cx="470.45588882644694" cy="134.2501040841189" r="3.5" fill="rgb(44, 160, 44)"></circle><circle class="dot" id="SOMERVILLE_01" cx="509.66054622865073" cy="141.48660398053977" r="3.5" fill="rgb(44, 160, 44)"></circle><circle class="dot" id="SOMERVILLE_01" cx="548.8652036308547" cy="155.79714051993" r="3.5" fill="rgb(44, 160, 44)"></circle><circle class="dot" id="SOMERVILLE_01" cx="588.0698610330586" cy="176.1866273723278" r="3.5" fill="rgb(44, 160, 44)"></circle><circle class="dot" id="SOMERVILLE_01" cx="627.2745184352625" cy="200.92259675987248" r="3.5" fill="rgb(44, 160, 44)"></circle><circle class="dot" id="SOMERVILLE_01" cx="666.4791758374665" cy="226.32124525550492" r="3.5" fill="rgb(44, 160, 44)"></circle><circle class="dot" id="SOMERVILLE_01" cx="705.6838332396704" cy="258.50924018321905" r="3.5" fill="rgb(44, 160, 44)"></circle><circle class="dot" id="SOMERVILLE_01" cx="744.8884906418741" cy="307.29674401633656" r="3.5" fill="rgb(44, 160, 44)"></circle></g></g><g class="x-axis"><g class="x-tick" transform="translate(0,434)" fill="none" font-size="10" font-family="sans-serif" text-anchor="middle" style="font-size: 12px;"><text class="x-label" fill="black" text-anchor="middle" alignment-baseline="middle" x="408" y="34.92187753487995" style="font-size: 16px; font-weight: 500;">Distance (km)</text><path class="domain" stroke="#000" d="M0.5,6V0.5H816.5V6"></path><g class="tick" opacity="1" transform="translate(0.5,0)"><line stroke="#000" y2="6"></line><text fill="#000" y="9" dy="0.71em">10<tspan font-size="10" style="baseline-shift: super;">-3</tspan></text></g><g class="tick" opacity="1" transform="translate(41.44007941030144,0)"><line stroke="#000" y2="6"></line><text fill="#000" y="9" dy="0.71em"></text></g><g class="tick" opacity="1" transform="translate(65.38849064187409,0)"><line stroke="#000" y2="6"></line><text fill="#000" y="9" dy="0.71em"></text></g><g class="tick" opacity="1" transform="translate(82.38015882060289,0)"><line stroke="#000" y2="6"></line><text fill="#000" y="9" dy="0.71em"></text></g><g class="tick" opacity="1" transform="translate(95.55992058969856,0)"><line stroke="#000" y2="6"></line><text fill="#000" y="9" dy="0.71em"></text></g><g class="tick" opacity="1" transform="translate(106.32857005217554,0)"><line stroke="#000" y2="6"></line><text fill="#000" y="9" dy="0.71em"></text></g><g class="tick" opacity="1" transform="translate(115.43333344193893,0)"><line stroke="#000" y2="6"></line><text fill="#000" y="9" dy="0.71em"></text></g><g class="tick" opacity="1" transform="translate(123.32023823090432,0)"><line stroke="#000" y2="6"></line><text fill="#000" y="9" dy="0.71em"></text></g><g class="tick" opacity="1" transform="translate(130.2769812837482,0)"><line stroke="#000" y2="6"></line><text fill="#000" y="9" dy="0.71em"></text></g><g class="tick" opacity="1" transform="translate(136.50000000000003,0)"><line stroke="#000" y2="6"></line><text fill="#000" y="9" dy="0.71em">10<tspan font-size="10" style="baseline-shift: super;">-2</tspan></text></g><g class="tick" opacity="1" transform="translate(177.44007941030145,0)"><line stroke="#000" y2="6"></line><text fill="#000" y="9" dy="0.71em"></text></g><g class="tick" opacity="1" transform="translate(201.38849064187409,0)"><line stroke="#000" y2="6"></line><text fill="#000" y="9" dy="0.71em"></text></g><g class="tick" opacity="1" transform="translate(218.38015882060287,0)"><line stroke="#000" y2="6"></line><text fill="#000" y="9" dy="0.71em"></text></g><g class="tick" opacity="1" transform="translate(231.55992058969855,0)"><line stroke="#000" y2="6"></line><text fill="#000" y="9" dy="0.71em"></text></g><g class="tick" opacity="1" transform="translate(242.32857005217554,0)"><line stroke="#000" y2="6"></line><text fill="#000" y="9" dy="0.71em"></text></g><g class="tick" opacity="1" transform="translate(251.43333344193894,0)"><line stroke="#000" y2="6"></line><text fill="#000" y="9" dy="0.71em"></text></g><g class="tick" opacity="1" transform="translate(259.3202382309043,0)"><line stroke="#000" y2="6"></line><text fill="#000" y="9" dy="0.71em"></text></g><g class="tick" opacity="1" transform="translate(266.27698128374817,0)"><line stroke="#000" y2="6"></line><text fill="#000" y="9" dy="0.71em"></text></g><g class="tick" opacity="1" transform="translate(272.50000000000006,0)"><line stroke="#000" y2="6"></line><text fill="#000" y="9" dy="0.71em">10<tspan font-size="10" style="baseline-shift: super;">-1</tspan></text></g><g class="tick" opacity="1" transform="translate(313.4400794103014,0)"><line stroke="#000" y2="6"></line><text fill="#000" y="9" dy="0.71em"></text></g><g class="tick" opacity="1" transform="translate(337.3884906418741,0)"><line stroke="#000" y2="6"></line><text fill="#000" y="9" dy="0.71em"></text></g><g class="tick" opacity="1" transform="translate(354.3801588206029,0)"><line stroke="#000" y2="6"></line><text fill="#000" y="9" dy="0.71em"></text></g><g class="tick" opacity="1" transform="translate(367.55992058969855,0)"><line stroke="#000" y2="6"></line><text fill="#000" y="9" dy="0.71em"></text></g><g class="tick" opacity="1" transform="translate(378.32857005217556,0)"><line stroke="#000" y2="6"></line><text fill="#000" y="9" dy="0.71em"></text></g><g class="tick" opacity="1" transform="translate(387.4333334419389,0)"><line stroke="#000" y2="6"></line><text fill="#000" y="9" dy="0.71em"></text></g><g class="tick" opacity="1" transform="translate(395.32023823090435,0)"><line stroke="#000" y2="6"></line><text fill="#000" y="9" dy="0.71em"></text></g><g class="tick" opacity="1" transform="translate(402.27698128374817,0)"><line stroke="#000" y2="6"></line><text fill="#000" y="9" dy="0.71em"></text></g><g class="tick" opacity="1" transform="translate(408.5,0)"><line stroke="#000" y2="6"></line><text fill="#000" y="9" dy="0.71em">10<tspan font-size="10" style="baseline-shift: super;">0</tspan></text></g><g class="tick" opacity="1" transform="translate(449.4400794103015,0)"><line stroke="#000" y2="6"></line><text fill="#000" y="9" dy="0.71em"></text></g><g class="tick" opacity="1" transform="translate(473.38849064187406,0)"><line stroke="#000" y2="6"></line><text fill="#000" y="9" dy="0.71em"></text></g><g class="tick" opacity="1" transform="translate(490.38015882060284,0)"><line stroke="#000" y2="6"></line><text fill="#000" y="9" dy="0.71em"></text></g><g class="tick" opacity="1" transform="translate(503.5599205896986,0)"><line stroke="#000" y2="6"></line><text fill="#000" y="9" dy="0.71em"></text></g><g class="tick" opacity="1" transform="translate(514.3285700521755,0)"><line stroke="#000" y2="6"></line><text fill="#000" y="9" dy="0.71em"></text></g><g class="tick" opacity="1" transform="translate(523.433333441939,0)"><line stroke="#000" y2="6"></line><text fill="#000" y="9" dy="0.71em"></text></g><g class="tick" opacity="1" transform="translate(531.3202382309044,0)"><line stroke="#000" y2="6"></line><text fill="#000" y="9" dy="0.71em"></text></g><g class="tick" opacity="1" transform="translate(538.2769812837482,0)"><line stroke="#000" y2="6"></line><text fill="#000" y="9" dy="0.71em"></text></g><g class="tick" opacity="1" transform="translate(544.5000000000001,0)"><line stroke="#000" y2="6"></line><text fill="#000" y="9" dy="0.71em">10<tspan font-size="10" style="baseline-shift: super;">1</tspan></text></g><g class="tick" opacity="1" transform="translate(585.4400794103015,0)"><line stroke="#000" y2="6"></line><text fill="#000" y="9" dy="0.71em"></text></g><g class="tick" opacity="1" transform="translate(609.3884906418741,0)"><line stroke="#000" y2="6"></line><text fill="#000" y="9" dy="0.71em"></text></g><g class="tick" opacity="1" transform="translate(626.3801588206028,0)"><line stroke="#000" y2="6"></line><text fill="#000" y="9" dy="0.71em"></text></g><g class="tick" opacity="1" transform="translate(639.5599205896985,0)"><line stroke="#000" y2="6"></line><text fill="#000" y="9" dy="0.71em"></text></g><g class="tick" opacity="1" transform="translate(650.3285700521756,0)"><line stroke="#000" y2="6"></line><text fill="#000" y="9" dy="0.71em"></text></g><g class="tick" opacity="1" transform="translate(659.4333334419389,0)"><line stroke="#000" y2="6"></line><text fill="#000" y="9" dy="0.71em"></text></g><g class="tick" opacity="1" transform="translate(667.3202382309044,0)"><line stroke="#000" y2="6"></line><text fill="#000" y="9" dy="0.71em"></text></g><g class="tick" opacity="1" transform="translate(674.2769812837482,0)"><line stroke="#000" y2="6"></line><text fill="#000" y="9" dy="0.71em"></text></g><g class="tick" opacity="1" transform="translate(680.5,0)"><line stroke="#000" y2="6"></line><text fill="#000" y="9" dy="0.71em">10<tspan font-size="10" style="baseline-shift: super;">2</tspan></text></g><g class="tick" opacity="1" transform="translate(721.4400794103016,0)"><line stroke="#000" y2="6"></line><text fill="#000" y="9" dy="0.71em"></text></g><g class="tick" opacity="1" transform="translate(745.3884906418741,0)"><line stroke="#000" y2="6"></line><text fill="#000" y="9" dy="0.71em"></text></g><g class="tick" opacity="1" transform="translate(762.3801588206029,0)"><line stroke="#000" y2="6"></line><text fill="#000" y="9" dy="0.71em"></text></g><g class="tick" opacity="1" transform="translate(775.5599205896985,0)"><line stroke="#000" y2="6"></line><text fill="#000" y="9" dy="0.71em"></text></g><g class="tick" opacity="1" transform="translate(786.3285700521755,0)"><line stroke="#000" y2="6"></line><text fill="#000" y="9" dy="0.71em"></text></g><g class="tick" opacity="1" transform="translate(795.433333441939,0)"><line stroke="#000" y2="6"></line><text fill="#000" y="9" dy="0.71em"></text></g><g class="tick" opacity="1" transform="translate(803.3202382309044,0)"><line stroke="#000" y2="6"></line><text fill="#000" y="9" dy="0.71em"></text></g><g class="tick" opacity="1" transform="translate(810.2769812837483,0)"><line stroke="#000" y2="6"></line><text fill="#000" y="9" dy="0.71em"></text></g><g class="tick" opacity="1" transform="translate(816.5,0)"><line stroke="#000" y2="6"></line><text fill="#000" y="9" dy="0.71em">10<tspan font-size="10" style="baseline-shift: super;">3</tspan></text></g></g></g><g class="y-axis"><g class="y-tick" fill="none" font-size="10" font-family="sans-serif" text-anchor="end" style="font-size: 12px;"><text class="y-label" fill="black" transform="rotate(-90)" alignment-baseline="middle" text-anchor="middle" x="-217" y="-45.60158784879948" style="font-size: 16px; font-weight: 500;">Median ground motion (g)</text><path class="domain" stroke="#000" d="M-6,434.5H0.5V0.5H-6"></path><g class="tick" opacity="1" transform="translate(0,434.5)"><line stroke="#000" x2="-6"></line><text fill="#000" x="-9" dy="0.32em">10<tspan font-size="10" style="baseline-shift: super;">-3</tspan></text></g><g class="tick" opacity="1" transform="translate(0,401.83824547045805)"><line stroke="#000" x2="-6"></line><text fill="#000" x="-9" dy="0.32em"></text></g><g class="tick" opacity="1" transform="translate(0,382.73234386291665)"><line stroke="#000" x2="-6"></line><text fill="#000" x="-9" dy="0.32em"></text></g><g class="tick" opacity="1" transform="translate(0,369.1764909409161)"><line stroke="#000" x2="-6"></line><text fill="#000" x="-9" dy="0.32em"></text></g><g class="tick" opacity="1" transform="translate(0,358.66175452954195)"><line stroke="#000" x2="-6"></line><text fill="#000" x="-9" dy="0.32em"></text></g><g class="tick" opacity="1" transform="translate(0,350.0705893333747)"><line stroke="#000" x2="-6"></line><text fill="#000" x="-9" dy="0.32em"></text></g><g class="tick" opacity="1" transform="translate(0,342.80686265845316)"><line stroke="#000" x2="-6"></line><text fill="#000" x="-9" dy="0.32em"></text></g><g class="tick" opacity="1" transform="translate(0,336.51473641137414)"><line stroke="#000" x2="-6"></line><text fill="#000" x="-9" dy="0.32em"></text></g><g class="tick" opacity="1" transform="translate(0,330.96468772583324)"><line stroke="#000" x2="-6"></line><text fill="#000" x="-9" dy="0.32em"></text></g><g class="tick" opacity="1" transform="translate(0,326)"><line stroke="#000" x2="-6"></line><text fill="#000" x="-9" dy="0.32em">10<tspan font-size="10" style="baseline-shift: super;">-2</tspan></text></g><g class="tick" opacity="1" transform="translate(0,293.33824547045805)"><line stroke="#000" x2="-6"></line><text fill="#000" x="-9" dy="0.32em"></text></g><g class="tick" opacity="1" transform="translate(0,274.23234386291665)"><line stroke="#000" x2="-6"></line><text fill="#000" x="-9" dy="0.32em"></text></g><g class="tick" opacity="1" transform="translate(0,260.6764909409161)"><line stroke="#000" x2="-6"></line><text fill="#000" x="-9" dy="0.32em"></text></g><g class="tick" opacity="1" transform="translate(0,250.16175452954198)"><line stroke="#000" x2="-6"></line><text fill="#000" x="-9" dy="0.32em"></text></g><g class="tick" opacity="1" transform="translate(0,241.5705893333747)"><line stroke="#000" x2="-6"></line><text fill="#000" x="-9" dy="0.32em"></text></g><g class="tick" opacity="1" transform="translate(0,234.30686265845313)"><line stroke="#000" x2="-6"></line><text fill="#000" x="-9" dy="0.32em"></text></g><g class="tick" opacity="1" transform="translate(0,228.01473641137414)"><line stroke="#000" x2="-6"></line><text fill="#000" x="-9" dy="0.32em"></text></g><g class="tick" opacity="1" transform="translate(0,222.46468772583327)"><line stroke="#000" x2="-6"></line><text fill="#000" x="-9" dy="0.32em"></text></g><g class="tick" opacity="1" transform="translate(0,217.5)"><line stroke="#000" x2="-6"></line><text fill="#000" x="-9" dy="0.32em">10<tspan font-size="10" style="baseline-shift: super;">-1</tspan></text></g><g class="tick" opacity="1" transform="translate(0,184.83824547045808)"><line stroke="#000" x2="-6"></line><text fill="#000" x="-9" dy="0.32em"></text></g><g class="tick" opacity="1" transform="translate(0,165.73234386291665)"><line stroke="#000" x2="-6"></line><text fill="#000" x="-9" dy="0.32em"></text></g><g class="tick" opacity="1" transform="translate(0,152.1764909409161)"><line stroke="#000" x2="-6"></line><text fill="#000" x="-9" dy="0.32em"></text></g><g class="tick" opacity="1" transform="translate(0,141.661754529542)"><line stroke="#000" x2="-6"></line><text fill="#000" x="-9" dy="0.32em"></text></g><g class="tick" opacity="1" transform="translate(0,133.0705893333747)"><line stroke="#000" x2="-6"></line><text fill="#000" x="-9" dy="0.32em"></text></g><g class="tick" opacity="1" transform="translate(0,125.80686265845316)"><line stroke="#000" x2="-6"></line><text fill="#000" x="-9" dy="0.32em"></text></g><g class="tick" opacity="1" transform="translate(0,119.51473641137414)"><line stroke="#000" x2="-6"></line><text fill="#000" x="-9" dy="0.32em"></text></g><g class="tick" opacity="1" transform="translate(0,113.96468772583324)"><line stroke="#000" x2="-6"></line><text fill="#000" x="-9" dy="0.32em"></text></g><g class="tick" opacity="1" transform="translate(0,109.00000000000006)"><line stroke="#000" x2="-6"></line><text fill="#000" x="-9" dy="0.32em">10<tspan font-size="10" style="baseline-shift: super;">0</tspan></text></g><g class="tick" opacity="1" transform="translate(0,76.3382454704581)"><line stroke="#000" x2="-6"></line><text fill="#000" x="-9" dy="0.32em"></text></g><g class="tick" opacity="1" transform="translate(0,57.23234386291671)"><line stroke="#000" x2="-6"></line><text fill="#000" x="-9" dy="0.32em"></text></g><g class="tick" opacity="1" transform="translate(0,43.676490940916096)"><line stroke="#000" x2="-6"></line><text fill="#000" x="-9" dy="0.32em"></text></g><g class="tick" opacity="1" transform="translate(0,33.16175452954195)"><line stroke="#000" x2="-6"></line><text fill="#000" x="-9" dy="0.32em"></text></g><g class="tick" opacity="1" transform="translate(0,24.570589333374755)"><line stroke="#000" x2="-6"></line><text fill="#000" x="-9" dy="0.32em"></text></g><g class="tick" opacity="1" transform="translate(0,17.306862658453156)"><line stroke="#000" x2="-6"></line><text fill="#000" x="-9" dy="0.32em"></text></g><g class="tick" opacity="1" transform="translate(0,11.014736411374145)"><line stroke="#000" x2="-6"></line><text fill="#000" x="-9" dy="0.32em"></text></g><g class="tick" opacity="1" transform="translate(0,5.464687725833244)"><line stroke="#000" x2="-6"></line><text fill="#000" x="-9" dy="0.32em"></text></g><g class="tick" opacity="1" transform="translate(0,0.5)"><line stroke="#000" x2="-6"></line><text fill="#000" x="-9" dy="0.32em">10<tspan font-size="10" style="baseline-shift: super;">1</tspan></text></g></g></g><g class="d3-tooltip"></g><g class="legend"><g class="outlines"><rect class="outer" height="86.24998859304023" width="264.85945611615836" stroke="#999" fill="white" transform="translate(5,342.64062119768005)"></rect><rect class="inner" height="56.24998859304023" width="224.85945611615836" x="20" y="15" fill="white" transform="translate(5,342.64062119768005)"></rect></g><g class="legend-entries" transform="translate(5,342.64062119768005)"><g class="legend-entry" id="AB_06_PRIME" transform="translate(20,22)" style="cursor: pointer; font-size: 14px;"><text class="legend-text" x="30" y="0" alignment-baseline="central">Atkinson &amp; Boore (2006): Prime</text><line class="legend-line" x2="20" y1="0" y2="0" stroke-width="2.5" stroke="#1f77b4" fill="none"></line><circle class="legend-circle" cx="10" cy="0" r="3.5" fill="#1f77b4"></circle></g><g class="legend-entry" id="FRANKEL_96" transform="translate(20,22)" style="cursor: pointer; font-size: 14px;"><text class="legend-text" x="30" y="20" alignment-baseline="central">Frankel et al. (1996)</text><line class="legend-line" x2="20" y1="20" y2="20" stroke-width="2.5" stroke="#ff7f0e" fill="none"></line><circle class="legend-circle" cx="10" cy="20" r="3.5" fill="#ff7f0e"></circle></g><g class="legend-entry" id="SOMERVILLE_01" transform="translate(20,22)" style="cursor: pointer; font-size: 14px;"><text class="legend-text" x="30" y="40" alignment-baseline="central">Somerville et al. (2001)</text><line class="legend-line" x2="20" y1="40" y2="40" stroke-width="2.5" stroke="#2ca02c" fill="none"></line><circle class="legend-circle" cx="10" cy="40" r="3.5" fill="#2ca02c"></circle></g></g></g><text class="plot-title" x="408" y="-40" text-anchor="middle" alignment-baseline="text-after-edge" style="font-size: 20px;"></text></g></svg>