<svg class="plot" version="1.1" xmlns="http://www.w3.org/2000/svg" height="559.2" width="1056" style="font-family: &quot;Helvetica Neue&quot;, Helvetica, Arial, sans-serif;"><g class="plot" transform="translate(96,19.200000000000003) scale(1.0714285714285714)"><g class="all-data"><g class="data" id="a" style="cursor: pointer;"><path class="line" d="M0,217L27.2,193.39361205035445L54.4,170.9182235411722L81.60000000000001,150.6506468963745L108.8,133.56191664668694L136,120.4707664497895L163.20000000000002,112.00440295751292L190.4,108.56845588300723L217.6,110.32754398230634L244.79999999999998,117.19738804843149L272,128.8488487902962L299.2,144.72369613866073L326.40000000000003,164.06135446006783L353.6,185.9353422958532L380.8,209.29766077148565L408,233.02900399483846L435.2,255.99238582621481L462.4,277.0876137220612L489.59999999999997,295.3039997703793L516.8,309.7687834932907L544,319.78894644460513L571.1999999999999,324.8844152342103L598.4,324.8110621979233L625.6,319.5724017337612L652.8000000000001,309.419421924542L680,294.83855951390314L707.2,276.5283943634939L734.4,255.36617997707248L761.6,232.36581363875814L788.8,208.6292598470829" id="a" stroke="#1f77b4" stroke-width="2.5" fill="none" style="shape-rendering: geometricPrecision;"></path><circle class="dot" id="a" cx="0" cy="217" r="3.5" fill="rgb(31, 119, 180)"></circle><circle class="dot" id="a" cx="27.2" cy="193.39361205035445" r="3.5" fill="rgb(31, 119, 180)"></circle><circle class="dot" id="a" cx="54.4" cy="170.9182235411722" r="3.5" fill="rgb(31, 119, 180)"></circle><circle class="dot" id="a" cx="81.60000000000001" cy="150.6506468963745" r="3.5" fill="rgb(31, 119, 180)"></circle><circle class="dot" id="a" cx="108.8" cy="133.56191664668694" r="3.5" fill="rgb(31, 119, 180)"></circle><circle class="dot" id="a" cx="136" cy="120.4707664497895" r="3.5" fill="rgb(31, 119, 180)"></circle><circle class="dot" id="a" cx="163.20000000000002" cy="112.00440295751292" r="3.5" fill="rgb(31, 119, 180)"></circle><circle class="dot" id="a" cx="190.4" cy="108.56845588300723" r="3.5" fill="rgb(31, 119, 180)"></circle><circle class="dot" id="a" cx="217.6" cy="110.32754398230634" r="3.5" fill="rgb(31, 119, 180)"></circle><circle class="dot" id="a" cx="244.79999999999998" cy="117.19738804843149" r="3.5" fill="rgb(31, 119, 180)"></circle><circle class="dot" id="a" cx="272" cy="128.8488487902962" r="3.5" fill="rgb(31, 119, 180)"></circle><circle class="dot" id="a" cx="299.2" cy="144.72369613866073" r="3.5" fill="rgb(31, 119, 180)"></circle><circle class="dot" id="a" cx="326.40000000000003" cy="164.06135446006783" r="3.5" fill="rgb(31, 119, 180)"></circle><circle class="dot" id="a" cx="353.6" cy="185.9353422958532" r="3.5" fill="rgb(31, 119, 180)"></circle><circle class="dot" id="a" cx="380.8" cy="209.29766077148565" r="3.5" fill="rgb(31, 119, 180)"></circle><circle class="dot" id="a" cx="408" cy="233.02900399483846" r="3.5" fill="rgb(31, 119, 180)"></circle><circle class="dot" id="a" cx="435.2" cy="255.99238582621481" r="3.5" fill="rgb(31, 119, 180)"></circle><circle class="dot" id="a" cx="462.4" cy="277.0876137220612" r="3.5" fill="rgb(31, 119, 180)"></circle><circle class="dot" id="a" cx="489.59999999999997" cy="295.3039997703793" r="3.5" fill="rgb(31, 119, 180)"></circle><circle class="dot" id="a" cx="516.8" cy="309.7687834932907" r="3.5" fill="rgb(31, 119, 180)"></circle><circle class="dot" id="a" cx="544" cy="319.78894644460513" r="3.5" fill="rgb(31, 119, 180)"></circle><circle class="dot" id="a" cx="571.1999999999999" cy="324.8844152342103" r="3.5" fill="rgb(31, 119, 180)"></circle><circle class="dot" id="a" cx="598.4" cy="324.8110621979233" r="3.5" fill="rgb(31, 119, 180)"></circle><circle class="dot" id="a" cx="625.6" cy="319.5724017337612" r="3.5" fill="rgb(31, 119, 180)"></circle><circle class="dot" id="a" cx="652.8000000000001" cy="309.419421924542" r="3.5" fill="rgb(31, 119, 180)"></circle><circle class="dot" id="a" cx="680" cy="294.83855951390314" r="3.5" fill="rgb(31, 119, 180)"></circle><circle class="dot" id="a" cx="707.2" cy="276.5283943634939" r="3.5" fill="rgb(31, 119, 180)"></circle><circle class="dot" id="a" cx="734.4" cy="255.36617997707248" r="3.5" fill="rgb(31, 119, 180)"></circle><circle class="dot" id="a" cx="761.6" cy="232.36581363875814" r="3.5" fill="rgb(31, 119, 180)"></circle><circle class="dot" id="a" cx="788.8" cy="208.6292598470829" r="3.5" fill="rgb(31, 119, 180)"></circle></g><g class="data" id="b" style="cursor: pointer;"><path class="line" d="M0,54.25L27.2,58.14873620919991L54.4,69.65815351232732L81.60000000000001,88.22682724595376L108.8,112.96511856962326L136,142.68779771820732L163.20000000000002,175.97082923326042L190.4,211.21959855109975L217.6,246.74531116150476L244.79999999999998,280.84590399704933L272,311.88759252878566L299.2,338.38314658684106L326.40000000000003,359.0631446536863L353.6,372.9367927843825L380.8,379.339394274526L408,377.9641957691221L435.2,368.8770840418465L462.4,352.5134293111713L489.59999999999997,329.65722633240625L516.8,301.4035326313042L544,269.1060034911354L571.1999999999999,234.3120373306584L598.4,198.6886387057137L625.6,163.94255089266176L652.8000000000001,131.73848456044004L680,103.61936025581241L707.2,80.93238594310992L734.4,64.76451127800232L761.6,55.8903510486021L788.8,54.73507281021028" id="b" stroke="#ff7f0e" stroke-width="2.5" fill="none" style="shape-rendering: geometricPrecision;"></path><circle class="dot" id="b" cx="0" cy="54.25" r="3.5" fill="rgb(255, 127, 14)"></circle><circle class="dot" id="b" cx="27.2" cy="58.14873620919991" r="3.5" fill="rgb(255, 127, 14)"></circle><circle class="dot" id="b" cx="54.4" cy="69.65815351232732" r="3.5" fill="rgb(255, 127, 14)"></circle><circle class="dot" id="b" cx="81.60000000000001" cy="88.22682724595376" r="3.5" fill="rgb(255, 127, 14)"></circle><circle class="dot" id="b" cx="108.8" cy="112.96511856962326" r="3.5" fill="rgb(255, 127, 14)"></circle><circle class="dot" id="b" cx="136" cy="142.68779771820732" r="3.5" fill="rgb(255, 127, 14)"></circle><circle class="dot" id="b" cx="163.20000000000002" cy="175.97082923326042" r="3.5" fill="rgb(255, 127, 14)"></circle><circle class="dot" id="b" cx="190.4" cy="211.21959855109975" r="3.5" fill="rgb(255, 127, 14)"></circle><circle class="dot" id="b" cx="217.6" cy="246.74531116150476" r="3.5" fill="rgb(255, 127, 14)"></circle><circle class="dot" id="b" cx="244.79999999999998" cy="280.84590399704933" r="3.5" fill="rgb(255, 127, 14)"></circle><circle class="dot" id="b" cx="272" cy="311.88759252878566" r="3.5" fill="rgb(255, 127, 14)"></circle><circle class="dot" id="b" cx="299.2" cy="338.38314658684106" r="3.5" fill="rgb(255, 127, 14)"></circle><circle class="dot" id="b" cx="326.40000000000003" cy="359.0631446536863" r="3.5" fill="rgb(255, 127, 14)"></circle><circle class="dot" id="b" cx="353.6" cy="372.9367927843825" r="3.5" fill="rgb(255, 127, 14)"></circle><circle class="dot" id="b" cx="380.8" cy="379.339394274526" r="3.5" fill="rgb(255, 127, 14)"></circle><circle class="dot" id="b" cx="408" cy="377.9641957691221" r="3.5" fill="rgb(255, 127, 14)"></circle><circle class="dot" id="b" cx="435.2" cy="368.8770840418465" r="3.5" fill="rgb(255, 127, 14)"></circle><circle class="dot" id="b" cx="462.4" cy="352.5134293111713" r="3.5" fill="rgb(255, 127, 14)"></circle><circle class="dot" id="b" cx="489.59999999999997" cy="329.65722633240625" r="3.5" fill="rgb(255, 127, 14)"></circle><circle class="dot" id="b" cx="516.8" cy="301.4035326313042" r="3.5" fill="rgb(255, 127, 14)"></circle><circle class="dot" id="b" cx="544" cy="269.1060034911354" r="3.5" fill="rgb(255, 127, 14)"></circle><circle class="dot" id="b" cx="571.1999999999999" cy="234.3120373306584" r="3.5" fill="rgb(255, 127, 14)"></circle><circle class="dot" id="b" cx="598.4" cy="198.6886387057137" r="3.5" fill="rgb(255, 127, 14)"></circle><circle class="dot" id="b" cx="625.6" cy="163.94255089266176" r="3.5" fill="rgb(255, 127, 14)"></circle><circle class="dot" id="b" cx="652.8000000000001" cy="131.73848456044004" r="3.5" fill="rgb(255, 127, 14)"></circle><circle class="dot" id="b" cx="680" cy="103.61936025581241" r="3.5" fill="rgb(255, 127, 14)"></circle><circle class="dot" id="b" cx="707.2" cy="80.93238594310992" r="3.5" fill="rgb(255, 127, 14)"></circle><circle class="dot" id="b" cx="734.4" cy="64.76451127800232" r="3.5" fill="rgb(255, 127, 14)"></circle><circle class="dot" id="b" cx="761.6" cy="55.8903510486021" r="3.5" fill="rgb(255, 127, 14)"></circle><circle class="dot" id="b" cx="788.8" cy="54.73507281021028" r="3.5" fill="rgb(255, 127, 14)"></circle></g></g><g class="legend"></g><g class="d3-tooltip"></g><text class="plot-title" x="408" y="-40" text-anchor="middle" alignment-baseline="text-after-edge" style="font-size: 20px;"></text></g></svg>