<svg class="plot" version="1.1" xmlns="http://www.w3.org/2000/svg" height="559.2" width="1056" style="font-family: &quot;Helvetica Neue&quot;, Helvetica, Arial, sans-serif;"><g class="plot" transform="translate(96,19.200000000000003) scale(1.0714285714285714)"><g class="all-data"><g class="data" id="a" style="cursor: pointer;"><path class="line" d="M0,217L27.2,193.39361205035445L54.4,170.9182235411722L81.60000000000001,150.6506468963745L108.8,133.56191664668694L136,120.4707664497895L163.20000000000002,112.00440295751292L190.4,108.56845588300723L217.6,110.32754398230634L244.79999999999998,117.19738804843149L272,128.8488487902962L299.2,144.72369613866073L326.40000000000003,164.06135446006783L353.6,185.9353422958532L380.8,209.29766077148565L408,233.02900399483846L435.2,255.99238582621481L462.4,277.0876137220612L489.59999999999997,295.3039997703793L516.8,309.7687834932907L544,319.78894644460513L571.1999999999999,324.8844152342103L598.4,324.8110621979233L625.6,319.5724017337612L652.8000000000001,309.419421924542L680,294.83855951390314L707.2,276.5283943634939L734.4,255.36617997707248L761.6,232.36581363875814L788.8,208.6292598470829" id="a" stroke="#1f77b4" stroke-width="2.5" fill="none" style="shape-rendering: geometricPrecision;"></path><circle class="dot" id="a" cx="0" cy="217" r="3.5" fill="rgb(31, 119, 180)"></circle><circle class="dot" id="a" cx="27.2" cy="193.39361205035445" r="3.5" fill="rgb(31, 119, 180)"></circle><circle class="dot" id="a" cx="54.4" cy="170.9182235411722" r="3.5" fill="rgb(31, 119, 180)"></circle><circle class="dot" id="a" cx="81.60000000000001" cy="150.6506468963745" r="3.5" fill="rgb(31, 119, 180)"></circle><circle class="dot" id="a" cx="108.8" cy="133.56191664668694" r="3.5" fill="rgb(31, 119, 180)"></circle><circle class="dot" id="a" cx="136" cy="120.4707664497895" r="3.5" fill="rgb(31, 119, 180)"></circle><circle class="dot" id="a" cx="163.20000000000002" cy="112.00440295751292" r="3.5" fill="rgb(31, 119, 180)"></circle><circle class="dot" id="a" cx="190.4" cy="108.56845588300723" r="3.5" fill="rgb(31, 119, 180)"></circle><circle class="dot" id="a" cx="217.6" cy="110.32754398230634" r="3.5" fill="rgb(31, 119, 180)"></circle><circle class="dot" id="a" cx="244.79999999999998" cy="117.19738804843149" r="3.5" fill="rgb(31, 119, 180)"></circle><circle class="dot" id="a" cx="272" cy="128.8488487902962" r="3.5" fill="rgb(31, 119, 180)"></circle><circle class="dot" id="a" cx="299.2" cy="144.72369613866073" r="3.5" fill="rgb(31, 119, 180)"></circle><circle class="dot" id="a" cx="326.40000000000003" cy="164.06135446006783" r="3.5" fill="rgb(31, 119, 180)"></circle><circle class="dot" id="a" cx="353.6" cy="185.9353422958532" r="3.5" fill="rgb(31, 119, 180)"></circle><circle class="dot" id="a" cx="380.8" cy="209.29766077148565" r="3.5" fill="rgb(31, 119, 180)"></circle><circle class="dot" id="a" cx="408" cy="233.02900399483846" r="3.5" fill="rgb(31, 119, 180)"></circle><circle class="dot" id="a" cx="435.2" cy="255.99238582621481" r="3.5" fill="rgb(31, 119, 180)"></circle><circle class="dot" id="a" cx="462.4" cy="277.0876137220612" r="3.5" fill="rgb(31, 119, 180)"></circle><circle class="dot" id="a" cx="489.59999999999997" cy="295.3039997703793" r="3.5" fill="rgb(31, 119, 180)"></circle><circle class="dot" id="a" cx="516.8" cy="309.7687834932907" r="3.5" fill="rgb(31, 119, 180)"></circle><circle class="dot" id="a" cx="544" cy="319.78894644460513" r="3.5" fill="rgb(31, 119, 180)"></circle><circle class="dot" id="a" cx="571.1999999999999" cy="324.8844152342103" r="3.5" fill="rgb(31, 119, 180)"></circle><circle class="dot" id="a" cx="598.4" cy="324.8110621979233" r="3.5" fill="rgb(31, 119, 180)"></circle><circle class="dot" id="a" cx="625.6" cy="319.5724017337612" r="3.5" fill="rgb(31, 119, 180)"></circle><circle class="dot" id="a" cx="652.8000000000001" cy="309.419421924542" r="3.5" fill="rgb(31, 119, 180)"></circle><circle class="dot" id="a" cx="680" cy="294.83855951390314" r="3.5" fill="rgb(31, 119, 180)"></circle><circle class="dot" id="a" cx="707.2" cy="276.5283943634939" r="3.5" fill="rgb(31, 119, 180)"></circle><circle class="dot" id="a" cx="734.4" cy="255.36617997707248" r="3.5" fill="rgb(31, 119, 180)"></circle><circle class="dot" id="a" cx="761.6" cy="232.36581363875814" r="3.5" fill="rgb(31, 119, 180)"></circle><circle class="dot" id="a" cx="788.8" cy="208.6292598470829" r="3.5" fill="rgb(31, 119, 180)"></circle></g></g><g class="legend"></g><g class="d3-tooltip"></g><text class="plot-title" x="408" y="-40" text-anchor="middle" alignment-baseline="text-after-edge" style="font-size: 20px;"></text></g></svg>